# xmcd
#
# Track frame offsets: 
#        150
#        27017
#        52067
#        78317
#        108167
#        129767
#        150242
#        173567
#        195767
#        229667
#        268517
#        292067
#        318767
#
# Disc length: 4653 seconds
#
# Revision: 0
# Processed by: cddbd v1.5.2PL0 Copyright (c) Steve Scherf et al.
# Submitted via: ExactAudioCopy v1.1
#
DISCID=93122b0d
DTITLE=Curtis Hairston - Curtis Hairston (Expanded Edition)
DYEAR=1986
DGENRE=Soul
TTITLE0=Chillin' Out
TTITLE1=Let's Make Love Tonight
TTITLE2=[You're My] Shining Star
TTITLE3=Hold On [For Me]
TTITLE4=All We Have Is Love
TTITLE5=Take Charge
TTITLE6=The Morning After
TTITLE7=Let Me Change Your Mind
TTITLE8=Chillin' Out (Vocal Remix)
TTITLE9=Let's Make Love Tonight (Extended Remix)
TTITLE10=[You're My] Shining Star (Vocal Extended Version)
TTITLE11=Take Charge (Extended Remix)
TTITLE12=The Morning After (Extended Remix)
EXTD=
EXTT0=
EXTT1=
EXTT2=
EXTT3=
EXTT4=
EXTT5=
EXTT6=
EXTT7=
EXTT8=
EXTT9=
EXTT10=
EXTT11=
EXTT12=
PLAYORDER=
